HIERARCHY
ROOT pelvis
{
  OFFSET 0 100 0
  CHANNELS 6 Xposition Yposition Zposition Zrotation Xrotation Yrotation
  JOINT pelvis_right_femur
  {
    OFFSET -10.78128 -3.44521 -0.5502486
    CHANNELS 3 Zrotation Xrotation Yrotation
    JOINT right_femur_tibia
    {
      OFFSET -0.8047443 -44.0398 -0.1307829
      CHANNELS 3 Zrotation Xrotation Yrotation
      JOINT right_tibia_foot
      {
        OFFSET 3.006224 -47.83518 -5
        CHANNELS 3 Zrotation Xrotation Yrotation
        End Site
        {
          OFFSET 0 -5 15
        }
      }
    }
  }
  JOINT pelvis_left_femur
  {
    OFFSET 10.78128 -3.44521 -0.5502486
    CHANNELS 3 Zrotation Xrotation Yrotation
    JOINT left_femur_tibia
    {
      OFFSET 0.8047443 -44.0398 -0.1307829
      CHANNELS 3 Zrotation Xrotation Yrotation
      JOINT left_tibia_foot
      {
        OFFSET -4.370144 -48.10324 -4.275266
        CHANNELS 3 Zrotation Xrotation Yrotation
        End Site
        {
          OFFSET 0 -5 15
        }
      }
    }
  }
  JOINT pelvis_spine1
  {
    OFFSET 0 6.468898 -3.129235
    CHANNELS 3 Zrotation Xrotation Yrotation
    JOINT spine1
    {
      OFFSET 0 23.15396 4.99043
      CHANNELS 3 Zrotation Xrotation Yrotation
      JOINT spine2
      {
        OFFSET 0 20.79997 -5.064912
        CHANNELS 3 Zrotation Xrotation Yrotation
        JOINT neck
        {
          OFFSET 0 14.38658 9.616178
          CHANNELS 3 Zrotation Xrotation Yrotation
          End Site
          {
            OFFSET 0 20 0
          }
        }
      }
      JOINT right_manubrium
      {
        OFFSET -5.722621 16.35077 3.967754
        CHANNELS 3 Zrotation Xrotation Yrotation
        JOINT right_clavicle
        {
          OFFSET -13.16364 1.694482 -4.693211
          CHANNELS 3 Zrotation Xrotation Yrotation
          JOINT right_humerus
          {
            OFFSET -28.5034 -0.3100689 -2.792744
            CHANNELS 3 Zrotation Xrotation Yrotation
            JOINT right_radius
            {
              OFFSET -25.15693 0.02248979 -1.271978
              CHANNELS 3 Zrotation Xrotation Yrotation
              End Site
              {
                OFFSET -15 0 0
              }
            }
          }
        }
      }
      JOINT left_manubrium
      {
        OFFSET 5.722621 16.35077 3.967754
        CHANNELS 3 Zrotation Xrotation Yrotation
        JOINT left_clavicle
        {
          OFFSET 13.16364 1.694482 -4.693211
          CHANNELS 3 Zrotation Xrotation Yrotation
          JOINT left_humerus
          {
            OFFSET 29.39168 -1.063119 -2.237045
            CHANNELS 3 Zrotation Xrotation Yrotation
            JOINT left_radius
            {
              OFFSET 24.59957 -0.9528479 0.9047498
              CHANNELS 3 Zrotation Xrotation Yrotation
              End Site
              {
                OFFSET 15 -0 -0
              }
            }
          }
        }
      }
    }
  }
}
MOTION
Frames: 8
Frame Time: 0.0416666666667
0 103.5113 0 0.1471084 -0.6467431 0.231589 4.393609 -14.965 8.569182 -1.817183e-06 36.02368 1.976074e-06 -7.613008 -18.39366 -3.4032 -6.42841 7.259802 -22.8894 -3.831793e-07 5.166172 -3.254748e-06 5.564095 -17.36009 24.39026 -3.118812 -2.573498 4.354879 2.482244 8.572259 -7.27451 1.267624 22.07912 6.781424 2.738891 -24.24019 9.471148 5.619907 -20.28139 11.11356 84.45802 34.89683 -16.72317 2.665127e-07 4.536971e-07 17.88088 -5.495229 7.732281 4.755514 4.874824 -18.32915 -1.161538 -96.42308 30.0594 26.02008 -3.661627e-07 8.109887e-07 -13.66927 3.472798 17.3663 10.19101
0.4339508 103.5001 1.51329 0.1968456 -0.5968602 0.5381069 4.401276 -16.5361 8.699172 -1.920027e-06 37.35616 1.981993e-06 -7.177996 -17.44696 -3.601469 -6.513454 8.785024 -22.92777 -5.164081e-07 5.125415 -3.007652e-06 5.638837 -17.78074 24.1427 -3.194863 -2.672282 4.244017 2.526935 8.721028 -7.532542 1.220046 21.96156 6.904346 2.793092 -24.2246 9.512042 5.802129 -20.09902 11.2035 85.07329 34.97851 -17.60502 1.97346e-07 5.884633e-07 17.62602 -5.67087 8.043649 4.659034 4.89759 -18.60122 -1.337921 -96.01526 30.04335 25.45483 -2.732612e-08 8.825143e-07 -14.48705 3.402004 17.14324 10.30761
0.8587632 103.5046 3.138173 0.2194848 -0.3700155 0.9026068 4.430641 -18.33908 8.549756 -1.889772e-06 37.18434 1.860236e-06 -6.843326 -16.36853 -3.647719 -6.533038 10.25708 -22.74449 -5.95713e-07 5.051728 -2.950079e-06 5.608024 -18.27005 23.68603 -3.251253 -2.74975 4.109439 2.616271 8.855026 -7.825718 1.134851 21.82412 7.062119 2.894779 -24.27901 9.507357 5.933105 -19.8657 11.30116 85.7583 35.16823 -18.61304 1.451426e-07 6.342579e-07 17.12313 -6.013143 8.368695 4.664556 5.024577 -19.05367 -1.51475 -95.39505 29.92688 24.5786 1.496591e-07 8.927755e-07 -15.71891 3.487498 16.88759 10.21799
1.264532 103.4608 4.942723 0.2078857 0.04776632 1.301817 4.454418 -20.16269 8.098664 -1.706683e-06 35.41055 1.60679e-06 -6.655824 -15.21667 -3.491837 -6.497966 11.46966 -22.3368 -5.92371e-07 4.984127 -3.096064e-06 5.448844 -18.7701 23.03843 -3.286632 -2.796516 3.968644 2.744206 8.958296 -8.121897 1.01302 21.67896 7.252784 3.049084 -24.41836 9.454992 6.013585 -19.59483 11.40096 86.43818 35.50237 -19.64622 1.176461e-07 5.666856e-07 16.3921 -6.516584 8.675709 4.798807 5.25265 -19.65075 -1.659495 -94.63634 29.71426 23.48016 1.173823e-07 8.296813e-07 -17.26213 3.728718 16.61035 9.927356
1.639073 103.3109 6.983788 0.1678683 0.5875392 1.718355 4.471973 -22.12008 7.432263 -1.456436e-06 32.37651 1.298822e-06 -6.544747 -14.04376 -3.234571 -6.417564 12.60946 -21.75135 -5.420744e-07 5.005566 -3.420701e-06 5.147572 -19.31156 22.22675 -3.303691 -2.808188 3.807519 2.904516 9.025309 -8.430748 0.8715226 21.53942 7.465459 3.234911 -24.59901 9.375719 6.050866 -19.25655 11.49402 87.18476 35.9138 -20.77052 1.061189e-07 4.193109e-07 15.44939 -7.142929 8.985805 5.010601 5.567346 -20.36515 -1.782903 -93.74511 29.44727 22.1112 -7.275692e-08 7.29575e-07 -19.1106 4.064194 16.29741 9.506375
1.976873 103.0113 9.282681 0.09593341 1.203614 2.128547 4.469569 -23.86093 6.608883 -1.169897e-06 28.34936 9.827641e-07 -6.563583 -13.00107 -2.863139 -6.299772 13.42178 -21.044 -4.357409e-07 5.142789 -3.87887e-06 4.738425 -19.77304 21.33511 -3.294086 -2.782411 3.653152 3.075314 9.039248 -8.695655 0.7248684 21.40371 7.667527 3.430561 -24.79902 9.265373 6.03699 -18.89097 11.56008 87.77542 36.37554 -21.76225 1.135143e-07 1.958736e-07 14.40168 -7.790296 9.230128 5.275965 5.923974 -21.08516 -1.852759 -92.77772 29.14436 20.663 -4.226539e-07 6.031697e-07 -20.97782 4.469389 15.98909 8.98049
2.279377 102.569 11.87432 0.01815003 1.819653 2.527054 4.419117 -25.41292 5.720954 -8.738237e-07 24.19124 6.870131e-07 -6.594358 -11.86184 -2.446182 -6.198926 14.07483 -20.25211 -2.825392e-07 5.692094 -4.311912e-06 4.195254 -20.14103 20.36531 -3.281634 -2.731613 3.506154 3.238008 9.045547 -8.932352 0.5769293 21.28966 7.881751 3.644374 -24.9974 9.148769 6.033847 -18.47184 11.6223 88.36855 36.88083 -22.73722 1.225762e-07 -6.754959e-08 13.26179 -8.522513 9.480179 5.593907 6.280239 -21.78853 -1.898064 -91.82987 28.83383 19.18081 -8.304286e-07 4.662177e-07 -22.82668 4.847865 15.62212 8.489921
2.547775 102.006 14.75245 -0.05256051 2.289963 2.904233 4.349723 -26.57909 4.911611 -6.28462e-07 20.46525 4.794168e-07 -6.62977 -10.86262 -2.10255 -6.110806 14.54983 -19.48512 -1.132481e-07 6.727728 -4.695109e-06 3.554228 -20.35997 19.46006 -3.25674 -2.642391 3.369777 3.365331 9.024314 -9.097697 0.465003 21.23965 8.059239 3.827259 -25.13012 9.048973 6.013017 -18.02357 11.65143 88.90248 37.28375 -23.56191 1.330343e-07 -3.302202e-07 12.15388 -9.211612 9.68732 5.887675 6.584606 -22.35798 -1.919198 -91.0012 28.58893 17.78105 -1.244957e-06 3.537064e-07 -24.38555 5.132759 15.25604 8.107022
